<svg width="322" height="310" viewBox="0 0 322 310" fill="none" xmlns="http://www.w3.org/2000/svg">
<path d="M86 1H252.772C285.735 1 318.163 12.9436 320.591 45.8177C320.725 47.6397 320.831 49.5277 320.905 51.4834C320.997 53.8903 321.02 56.1992 320.983 58.4133C320.416 91.9234 285.434 103.497 251.92 103.497H63.6538C35.0728 103.497 5.24057 112.251 1.84821 140.63C1.39822 144.395 1.10993 148.497 1.02373 152.96V152.96C0.27219 191.873 40.8086 206.503 79.7287 206.503H252.772C285.735 206.503 318.163 218.447 320.591 251.321C320.725 253.143 320.831 255.031 320.905 256.987C320.997 259.394 321.02 261.703 320.983 263.917C320.416 297.427 285.434 309 251.92 309H86" stroke="#009FEF" stroke-width="2"/>
</svg>
