<svg width="45" height="45" viewBox="0 0 45 45" fill="none" xmlns="http://www.w3.org/2000/svg">
<path d="M22.5 36.3802L11.9382 44.3938C11.4148 44.8193 10.8439 45.0207 10.2254 44.998C9.60693 44.9753 9.05981 44.7975 8.58405 44.4647C8.10829 44.1338 7.74005 43.6846 7.47934 43.1173C7.21862 42.55 7.20625 41.9353 7.44223 41.2735L11.51 28.1539L1.16221 20.8495C0.5913 20.4713 0.234481 19.9748 0.0917534 19.3602C-0.0509743 18.7456 -0.0271861 18.1783 0.163118 17.6582C0.353421 17.1382 0.686452 16.6768 1.16221 16.2739C1.63797 15.8711 2.20888 15.6707 2.87494 15.6726H15.6491L19.7882 2.0566C20.0261 1.39471 20.3952 0.886 20.8957 0.530472C21.3962 0.174943 21.931 -0.0018761 22.5 1.50087e-05C23.0709 1.50087e-05 23.6066 0.17778 24.1071 0.533308C24.6076 0.888837 24.9758 1.3966 25.2118 2.0566L29.3509 15.6726H42.1251C42.7911 15.6726 43.362 15.874 43.8378 16.2768C44.3135 16.6796 44.6466 17.1401 44.8369 17.6582C45.0272 18.1783 45.051 18.7456 44.9082 19.3602C44.7655 19.9748 44.4087 20.4713 43.8378 20.8495L33.49 28.1539L37.5578 41.2735C37.7956 41.9353 37.7842 42.55 37.5235 43.1173C37.2628 43.6846 36.8936 44.1338 36.416 44.4647C35.9402 44.7956 35.3931 44.9734 34.7746 44.998C34.1561 45.0226 33.5852 44.8212 33.0618 44.3938L22.5 36.3802Z" fill="#009FEF"/>
</svg>
